<svg version="1.0" xmlns="http://www.w3.org/2000/svg" width="12" height="12" viewBox="0 0 512 512"><path d="M239.8 1.1C178.6 4.6 119.9 31.2 75.4 75.5 23.5 127.2-3.5 198.4 1.1 271.3c1.2 18.6 3 30.8 7.4 48.1 4.4 17.6 9 29.9 18.5 49.2 12.6 25.8 28.2 47.6 48.5 67.9C116.6 477.6 171 503.9 228 510c15.1 1.7 44.2 1.4 59.5-.5 107-13.2 194.3-92.7 218-198.2 10.2-45.8 6.9-98.6-9-142-2-5.4-7.2-17.1-11.5-26-29.4-60-80.5-105.6-144.1-128.3C321.4 7.9 296.1 2.6 277 1.5 257.2.3 253.1.3 239.8 1.1zm167.5 131.3c5.2 2.1 8.7 7 8.7 12.1 0 5.2-49.5 224.6-51.5 228.6-2.6 5-7.3 7.4-14.1 7.4-6.9 0-2.9 2.4-59.9-36.3l-25-16.9-19.5 18.4c-10.7 10.2-20.7 19.1-22.2 19.9-5.1 2.7-11.9 1.3-16-3.3-1-1.1-8.1-20.6-15.9-43.4-7.7-22.8-14.2-41.5-14.3-41.6-.1-.1-17.5-4.9-38.6-10.7-42.7-11.7-43-11.9-43-19.6 0-2.6.7-4.7 2.3-6.4 1.7-2 33.4-13.8 150.7-56 81.7-29.4 150-53.5 151.8-53.6 1.8 0 4.7.6 6.5 1.4z"/><path d="M274.5 222.5C223 252 193 269.8 192.1 271.3c-1.3 2.1-.5 5.1 9.8 36 6.2 18.5 11.6 33.7 12 33.7.4 0 2-10.1 3.5-22.5s2.9-23.2 3.2-23.9c.3-.7 31.5-26.7 69.5-57.7 54.4-44.4 68.9-56.8 68.7-58.4-.2-1.1-1-2.1-1.8-2.2-.8-.2-37.9 20.6-82.5 46.2z"/></svg>